<svg xmlns="http://www.w3.org/2000/svg" fill="none" viewBox="0 0 247 60" height="60" width="247">
<path fill="#D2B4D6" d="M15.7148 16.3684C16.1668 16.4313 16.6027 16.5651 17.0467 16.6675C21.4784 17.6514 25.9342 18.0371 30.4304 17.0768C32.2386 16.6911 33.8611 15.9197 34.9993 14.4556C37.4694 11.2834 36.9851 6.58414 34.0145 3.85275C31.7139 1.73533 28.8967 0.790751 25.8696 0.286979C22.6973 -0.240409 19.541 0.0114779 15.4968 0.61758C13.3739 0.963923 10.484 1.80617 7.91704 3.44343C4.89804 5.36407 2.67011 7.95377 1.33012 11.2204C0.321096 13.6763 -0.106731 16.2267 0.0224242 18.8715C0.159652 21.7209 0.77314 24.4602 2.04855 27.0342C3.61456 30.1749 5.93935 32.6859 8.96643 34.5672C9.25703 34.7482 9.68486 34.8348 10.032 34.8033C11.3558 34.6852 12.6635 34.4176 13.9873 34.3546C17.1194 34.2051 20.1868 34.701 23.23 35.3543C23.7547 35.4645 24.2875 35.6298 24.7718 35.8502C25.2723 36.0706 25.5064 36.5193 25.3853 37.0624C25.2642 37.5977 24.901 37.9125 24.3198 37.9046C23.9727 37.9046 23.6256 37.8732 23.2865 37.7944C18.9356 36.779 14.5685 36.3067 10.1046 37.0939C8.03006 37.456 6.19766 38.2038 4.88997 39.8253C2.10505 43.273 2.79119 48.6098 6.3026 51.3727C8.35294 52.9785 10.6858 53.9703 13.2528 54.4347C18.2172 55.3399 23.1251 55.0172 27.9765 53.6869C31.052 52.8447 33.7562 51.3884 36.0245 49.1844C37.9941 47.2717 39.4067 45.0362 40.1655 42.4307C41.2714 38.6446 41.2553 34.8427 40.0525 31.088C38.4623 26.1211 35.4191 22.2641 30.6565 19.7924C30.2932 19.6035 29.7927 19.572 29.3649 19.5956C28.2348 19.6744 27.1128 19.8554 25.9907 19.9341C23.0363 20.123 20.1384 19.6193 17.2566 19.1076C16.4736 18.9738 15.7067 18.6983 14.9722 18.3913C14.4475 18.1709 14.2295 17.6908 14.4232 17.1161C14.5766 16.6439 15.1497 16.2896 15.7148 16.3684Z"></path>
<path fill="#D2B4D6" d="M246.055 21.5242C246.136 18.6433 245.151 16.2189 242.56 14.6288C240.897 13.6056 239.041 13.1097 237.071 12.9444C234.108 12.7003 231.776 13.763 230.145 16.148C229.314 17.376 228.66 18.722 227.974 20.0444C227.764 20.4458 227.594 20.9339 227.61 21.3747C227.748 26.3573 227.295 31.3636 228.159 36.3304C228.216 36.6453 228.087 37.0704 227.877 37.3222C227.336 37.9677 226.238 37.7788 225.996 36.9444C225.697 35.9369 225.471 34.8742 225.431 33.8352C225.294 29.8837 225.237 25.9244 225.172 21.9729C225.132 19.6272 225.197 17.2658 224.494 14.9831C223.865 12.9286 222.71 11.2677 220.725 10.2444C218.707 9.20541 216.543 8.67803 214.259 8.71738C210.998 8.78036 208.624 10.2366 207.204 13.1175C205.985 15.5892 205.589 18.2182 205.743 20.9103C205.888 23.5078 206.211 26.0975 206.477 28.6873C206.776 31.521 207.107 34.3468 207.422 37.2278C209.351 37.1097 211.135 37.401 212.879 38.0071C215.09 38.7706 216.551 40.3764 217.786 42.2025C218.134 42.7063 218.376 43.2888 218.577 43.8713C218.787 44.4774 218.505 45.0126 217.948 45.233C217.391 45.4456 216.923 45.2724 216.576 44.8159C216.406 44.5955 216.269 44.3514 216.132 44.1074C215.51 43.0054 214.824 41.927 213.766 41.1792C211.07 39.2822 208.035 39.0382 204.984 39.9434C199.463 41.5964 197.226 48.421 200.738 53.4902C202.255 55.6863 204.378 57.2449 206.873 58.276C209.948 59.5512 213.193 59.9841 216.503 59.9999C220.539 60.0156 224.276 59.0396 227.667 56.8277C230.807 54.7811 233.164 52.0419 234.843 48.8146C237.789 43.155 240.615 37.4324 243.351 31.6784C244.869 28.4747 245.934 25.0979 246.039 21.5242"></path>
<path fill="#D2B4D6" d="M79.381 10.8269C77.3065 7.32409 74.3036 5.12008 70.0899 4.72651C66.7965 4.41952 63.729 5.08073 61.0006 6.97775C58.6193 8.63075 57.0291 10.8662 55.9878 13.5032C55.7698 14.0542 55.56 14.6131 55.3016 15.1562C55.0191 15.7465 54.4944 16.0142 53.9294 15.8804C53.2836 15.7229 53.0899 15.2506 53.1141 14.676C53.1302 14.3454 53.2109 14.007 53.3078 13.6842C53.9455 11.6298 54.9949 9.78785 56.4075 8.01678C55.9555 7.78851 55.6003 7.59172 55.229 7.42642C53.2352 6.5763 51.1687 6.48972 49.0295 6.78096C43.7826 7.48939 40.3761 11.7715 40.9008 16.8722C41.6677 24.4051 42.6363 31.9303 43.5324 39.4475C43.6131 40.1402 43.7261 40.8407 43.936 41.5019C44.7513 44.1467 46.2608 46.272 48.9004 47.4921C50.8619 48.3973 52.9123 48.5311 55.0191 48.1612C57.9493 47.6417 60.1207 46.091 61.4769 43.5013C62.5586 41.4468 62.6716 39.2428 62.4052 36.9916C61.8724 32.5442 61.3477 28.0969 60.8311 23.6495C60.7907 23.311 60.7665 22.9725 60.7746 22.6341C60.7907 22.0358 61.1378 21.7052 61.7271 21.6108C62.3729 21.5006 62.7926 21.7288 62.9945 22.3192C63.0994 22.6341 63.164 22.9804 63.2043 23.311C63.721 27.6324 64.2214 31.9539 64.7461 36.2753C64.8591 37.1805 64.9883 38.0857 65.2224 38.9673C65.9247 41.5728 67.3615 43.6745 69.8639 44.9811C71.8335 46.0123 73.9081 46.1618 76.0714 45.7998C78.6222 45.3747 80.6807 44.1704 82.1498 42.1002C83.7562 39.8332 84.0306 37.2828 83.7077 34.6144C83.0781 29.4271 82.4808 24.2398 81.8592 19.0604C81.5121 16.1795 80.8905 13.3772 79.381 10.8269Z"></path>
<path fill="#D2B4D6" d="M106.164 28.9392C106.164 29.7971 105.582 30.2773 104.791 30.1356C104.154 30.0254 103.855 29.624 103.823 29.0257C103.782 28.4118 103.79 27.7978 103.782 27.1838C103.734 23.9565 103.677 20.7371 103.637 17.5098C103.621 16.5652 104.033 16.1087 104.84 16.1166C105.55 16.1166 105.97 16.518 105.986 17.2894C106.035 19.2415 106.051 21.1936 106.083 23.1458C106.115 25.0743 106.156 27.0028 106.164 28.9392ZM118.062 6.44254C115.196 4.06536 111.847 2.7587 108.125 2.33365C104.129 1.8771 100.214 2.16047 96.4609 3.65605C92.11 5.38777 88.9699 8.37105 86.9922 12.5114C85.3454 15.9591 84.8127 19.6351 84.8853 23.6889C84.9096 26.4833 85.3616 29.4902 86.4836 32.3711C87.8721 35.9605 90.1161 38.9123 93.4419 41.0376C95.8635 42.5804 98.5112 43.5092 101.385 43.8792C105.51 44.4066 109.546 44.1232 113.421 42.5568C118.514 40.5023 121.88 36.8421 123.616 31.7886C125.295 26.9083 125.359 21.9257 124.262 16.9273C123.349 12.7948 121.412 9.2133 118.062 6.43467"></path>
<path fill="#D2B4D6" d="M148.131 28.7108C148.002 29.3169 147.55 29.5215 146.977 29.5294C146.388 29.5294 145.96 29.1594 145.871 28.5691C145.831 28.3014 145.823 28.0181 145.839 27.7504C145.928 25.9715 146.025 24.1925 146.122 22.4215C146.218 20.5795 146.307 18.7376 146.42 16.8957C146.493 15.8016 147.066 15.3057 147.978 15.5812C148.293 15.6756 148.608 16.0062 148.745 16.3132C148.89 16.6202 148.858 17.0217 148.842 17.3759C148.664 20.8472 148.479 24.3185 148.293 27.7898C148.277 28.1047 148.204 28.4195 148.14 28.7265M156.946 3.52998C152.555 1.47553 147.873 1.01899 143.119 1.82975C135.587 3.12066 130.849 7.61526 128.54 14.5658C127.095 18.9265 126.894 23.429 127.693 27.9551C128.266 31.1824 129.501 34.1578 131.616 36.716C134.417 40.0929 138.057 42.1395 142.424 42.9896C146.557 43.7925 150.642 43.761 154.646 42.4071C159.077 40.9115 162.363 38.0778 164.591 34.0633C166.407 30.7888 167.133 27.2388 167.376 23.5707C167.537 19.8475 167.182 16.2109 165.713 12.7238C163.969 8.59132 161.079 5.46636 156.946 3.52998Z"></path>
<path fill="#D2B4D6" d="M195.62 30.411C195.087 30.2772 194.764 30.3637 194.352 30.718C193.109 31.8042 191.85 32.8826 190.51 33.8508C189.679 34.449 188.718 34.882 187.774 35.2991C187.192 35.5589 186.627 35.2991 186.369 34.8347C186.078 34.3152 186.224 33.7091 186.748 33.3155C186.918 33.1896 187.112 33.0794 187.297 32.9771C189.453 31.8357 191.455 30.4897 193.004 28.6084C194.021 27.3647 195.063 26.1368 196.04 24.8695C197.912 22.4529 199.777 20.0364 201.585 17.5726C202.78 15.9432 203.377 14.0934 203.143 12.0626C202.731 8.47323 200.019 5.71035 196.338 5.30891C193.029 4.94682 189.695 4.75003 186.377 4.4824C183.051 4.21477 179.734 3.89205 176.408 3.69526C174.713 3.6008 173.066 3.9865 171.637 4.93108C169.159 6.5526 168.142 8.94552 168.223 11.7556C168.295 14.1485 169.272 16.1873 171.29 17.675C172.509 18.5802 173.865 19.1548 175.375 19.3752C177.465 19.6901 179.556 19.997 181.671 19.572C182.567 19.3909 183.447 19.1705 184.343 18.9895C185.077 18.8399 185.659 19.1784 185.796 19.8081C185.941 20.4457 185.586 20.9495 184.876 21.1856C182.212 22.0436 179.5 22.3821 176.715 21.9885C176.295 21.9255 176.037 22.0436 175.778 22.3663C175.173 23.1377 174.519 23.8777 173.889 24.6412C171.871 27.0813 169.716 29.4192 168.158 32.1899C167.706 33.0007 167.23 33.8508 167.036 34.7403C166.051 39.2663 168.796 43.5642 173.946 44.0994C180.379 44.7606 186.837 45.2014 193.295 45.6737C194.296 45.7446 195.37 45.6344 196.322 45.3352C201.908 43.6035 202.982 37.6055 200.641 33.7799C199.503 31.9144 197.727 30.9462 195.62 30.4188"></path>
</svg>
