<?xml version="1.0" encoding="UTF-8"?> <svg xmlns="http://www.w3.org/2000/svg" id="uuid-d4d5ba53-7237-41d9-aec6-05206beb854d" data-name="Layer 2" viewBox="0 0 1469.83 332.61752"><defs><style> .uuid-cf0d0b2d-baf9-4e74-a780-ba700a11afe3 { fill: #d05490; } .uuid-6bcc9099-6bce-45df-975c-086f9b1c580c { fill: #4a5660; } </style></defs><g id="uuid-5eb6c663-6e3c-4416-9c4f-487795a86813" data-name="Layer 1"><polygon class="uuid-6bcc9099-6bce-45df-975c-086f9b1c580c" points="1043.40638 75.87711 1014.51046 156.3604 997.2037 108.18375 1010.65417 75.87711 956.20166 75.87711 969.63076 110.46202 950.90211 156.3604 926.18019 75.87711 895.13314 75.87711 935.32878 190.24506 963.34078 190.24506 982.494 143.78734 1000.66367 190.24506 1028.66118 190.24506 1071.68718 75.87711 1043.40638 75.87711"></polygon><path class="uuid-6bcc9099-6bce-45df-975c-086f9b1c580c" d="m1119.34725,75.87711c-31.59877,0-57.21223,22.01184-57.21223,57.18397,0,34.61316,25.61346,57.18397,57.21223,57.18397,31.57776,0,57.17672-22.15348,57.17672-57.18397,0-34.71931-25.59897-57.18397-57.17672-57.18397m0,88.9175c-16.58477,0-27.74972-11.58989-27.74972-31.73353,0-20.43382,11.16495-31.73353,27.74972-31.73353s27.70734,11.72429,27.70734,31.73353c0,20.14365-11.12257,31.73353-27.70734,31.73353"></path><path class="uuid-6bcc9099-6bce-45df-975c-086f9b1c580c" d="m1275.11354,114.89829c0-20.83702-12.73609-39.02118-38.33505-39.02118h-54.16958v114.36794h28.57786v-35.03085h15.87727l15.88415,35.03085h32.16535l-20.03062-39.76418c11.46925-6.26896,20.03062-18.70763,20.03062-35.58258m-45.3184,14.60392h-18.60837v-26.46224h18.60837c11.13674,0,15.73563,6.58015,15.73563,12.5872,0,7.28077-4.59889,13.87504-15.73563,13.87504"></path><path class="uuid-6bcc9099-6bce-45df-975c-086f9b1c580c" d="m1410.51629,110.61055c0-4.29463,4.54242-7.86763,13.43634-7.86763,13.57762,0,27.45267,4.44316,37.01859,9.31813l5.00249-26.03042c-11.00949-5.86577-25.16751-10.15351-40.17426-10.15351-23.44096,0-42.87747,11.58989-42.87747,35.31378,0,41.02341,58.45737,30.18377,58.45737,44.60366,0,5.28542-3.14123,8.00928-15.72879,8.00928-14.41952,0-27.43849-3.99757-39.29686-9.72858l-3.43172,26.31335c11.86557,5.56871,28.86803,9.85646,41.8798,9.85646,30.45257,0,45.02823-17.29263,45.02823-36.88455,0-39.16971-59.31371-27.72147-59.31371-42.74996"></path><polygon class="uuid-6bcc9099-6bce-45df-975c-086f9b1c580c" points="1383.07051 75.87711 1349.04494 75.87711 1311.1417 123.63645 1311.1417 75.87711 1282.54247 75.87711 1282.54247 190.24506 1311.1417 190.24506 1311.1417 142.22381 1346.87969 190.24506 1382.90785 190.24506 1335.86327 130.35099 1383.07051 75.87711"></polygon><polygon class="uuid-6bcc9099-6bce-45df-975c-086f9b1c580c" points="736.26806 146.65284 675.6031 75.87711 650.45696 75.87711 650.45696 190.24506 679.0417 190.24506 679.0417 124.06102 736.26806 190.24506 764.88141 190.24506 764.88141 75.87711 736.26806 75.87711 736.26806 146.65284"></polygon><path class="uuid-6bcc9099-6bce-45df-975c-086f9b1c580c" d="m830.69703,102.74292c11.00954,0,28.31594,3.72153,32.32764,6.59428l6.99784-25.30916c-6.99784-4.43628-21.74304-8.15092-36.74979-8.15092-39.87032,0-62.75232,25.58484-62.75232,56.92205,0,31.8538,23.44785,57.44589,60.89137,57.44589,18.29719,0,32.03059-6.14869,38.61074-10.2948v-60.46716h-45.61546v27.16974h17.00934v15.87763c-3.72878.55173-7.42201.84878-10.59182.84878-21.42464,0-32.30663-13.7334-32.30663-30.31817,0-16.71229,11.01642-30.31817,32.17908-30.31817"></path><path class="uuid-6bcc9099-6bce-45df-975c-086f9b1c580c" d="m543.60345,110.61055c0-4.29463,4.57067-7.86763,13.40811-7.86763,13.6131,0,27.45264,4.44316,37.03994,9.31813l5.03763-26.03042c-11.03055-5.86577-25.18852-10.15351-40.18839-10.15351-23.45183,0-42.87385,11.58989-42.87385,35.31378,0,41.02341,58.44682,30.18377,58.44682,44.60366,0,5.28542-3.14155,8.00928-15.7215,8.00928-14.44126,0-27.44941-3.99757-39.33599-9.72858l-3.38933,26.31335c11.83731,5.56871,28.85028,9.85646,41.86205,9.85646,30.45981,0,45.04236-17.29263,45.04236-36.88455,0-39.16971-59.32784-27.72147-59.32784-42.74996"></path><path class="uuid-6bcc9099-6bce-45df-975c-086f9b1c580c" d="m337.42498,75.87711c-31.5745,0-57.1626,22.01184-57.1626,57.18397,0,34.61316,25.5881,57.18397,57.1626,57.18397,31.6129,0,57.20498-22.14624,57.20498-57.18397,0-34.71931-25.59208-57.18397-57.20498-57.18397m0,88.92439c-16.58839,0-27.71458-11.59677-27.71458-31.74041,0-20.43382,11.12619-31.73353,27.71458-31.73353,16.58477,0,27.7711,11.72429,27.7711,31.73353,0,20.14365-11.18633,31.74041-27.7711,31.74041"></path><polygon class="uuid-6bcc9099-6bce-45df-975c-086f9b1c580c" points="244.6443 119.4831 187.4712 119.4831 187.4712 75.87711 158.87559 75.87711 158.87559 190.24506 187.4712 190.24506 187.4712 146.65284 244.6443 146.65284 244.6443 190.24506 273.23993 190.24506 273.23993 75.87711 244.6443 75.87711 244.6443 119.4831"></polygon><rect class="uuid-6bcc9099-6bce-45df-975c-086f9b1c580c" x="610.9547" y="75.87711" width="28.58474" height="114.36794"></rect><path class="uuid-6bcc9099-6bce-45df-975c-086f9b1c580c" d="m480.79462,133.06108c0,16.58477-9.1591,30.31817-25.74749,30.31817-16.58477,0-25.73334-9.85609-25.73334-30.31817v-57.18397h-28.5815v57.18397c0,38.47634,22.71934,57.18397,54.31484,57.18397,31.59189,0,54.32535-25.59208,54.32535-57.18397v-57.18397h-28.57786v57.18397Z"></path><rect class="uuid-6bcc9099-6bce-45df-975c-086f9b1c580c" y="76.1249" width="130.40787" height="30.76412"></rect><rect class="uuid-6bcc9099-6bce-45df-975c-086f9b1c580c" y="117.80654" width="130.40787" height="30.75687"></rect><rect class="uuid-6bcc9099-6bce-45df-975c-086f9b1c580c" y="159.48094" width="130.40787" height="30.76412"></rect><polygon class="uuid-cf0d0b2d-baf9-4e74-a780-ba700a11afe3" points=".02137 65.20738 130.40787 65.20738 65.21788 0 .02137 65.20738"></polygon><g><path class="uuid-cf0d0b2d-baf9-4e74-a780-ba700a11afe3" d="m896.26211,222.02304c27.24739,0,27.9647,21.50893,27.9647,42.12509,0,1.07338-.71731,1.79069-1.79069,1.79069h-16.67355c-1.07338,0-1.79069-.71731-1.79069-1.79069,0-13.80431-.53669-20.97223-8.60254-20.97223-7.70977,0-11.1157,12.72577-11.1157,34.41531,0,21.15285,3.40592,33.87862,11.1157,33.87862,8.24646,0,8.60254-7.17308,8.60254-20.97223,0-1.07854.71731-1.79585,1.79069-1.79585h16.67355c1.07338,0,1.79069.71731,1.79069,1.79585,0,20.611-.71731,42.11993-27.9647,42.11993-26.52492,0-31.7267-30.82877-31.7267-55.02631,0-24.73423,5.20177-55.56816,31.7267-55.56816Z"></path><path class="uuid-cf0d0b2d-baf9-4e74-a780-ba700a11afe3" d="m982.57648,330.82683h-16.49293c-1.07338,0-1.61007-.35607-1.79069-1.61523l-1.254-10.21261c-.18062-1.25916-.71731-1.61523-1.79585-1.61523h-9.67592c-1.07854,0-1.61523.35607-1.79585,1.61523l-1.61007,10.21261c-.18062,1.25916-.71731,1.61523-1.79069,1.61523h-16.31231c-1.07854,0-1.79585-.89793-1.61523-1.97131l15.23377-103.42656c.18062-1.254.71731-1.61007,1.79585-1.61007h20.97223c1.07338,0,1.61007.53669,1.79069,1.61007l15.95108,103.42656c.18062,1.07338-.53669,1.97131-1.61007,1.97131Zm-21.33347-32.26339l-3.94261-27.42801c-.17546-1.42946-1.97131-1.42946-2.14676,0l-3.94778,27.42801c-.17546,1.07338.71731,1.97131,1.79585,1.97131h6.63123c1.07338,0,1.79069-.89793,1.61007-1.97131Z"></path><path class="uuid-cf0d0b2d-baf9-4e74-a780-ba700a11afe3" d="m1047.46449,225.07289v104.49994c0,.71731-.54185,1.254-1.25916,1.254h-17.38569c-.71731,0-1.254-.35607-1.43462-1.07338l-14.69708-42.84239c-.35607-1.07338-1.43462-1.07338-1.43462.18062v42.30054c0,.71731-.53669,1.43462-1.254,1.43462h-17.02962c-.71731,0-1.43462-.71731-1.43462-1.43462v-104.31932c0-.71731.71731-1.254,1.43462-1.254h17.21024c.71731,0,1.254.35607,1.43462,1.07338l14.69708,43.37909c.35607,1.07338,1.43462,1.07338,1.43462-.18062v-43.01785c0-.71731.71731-1.254,1.43462-1.254h16.849c.71731,0,1.43462.53669,1.43462,1.254Z"></path><path class="uuid-cf0d0b2d-baf9-4e74-a780-ba700a11afe3" d="m1116.35705,225.07289v104.49994c0,.71731-.54185,1.254-1.25916,1.254h-17.38569c-.71731,0-1.254-.35607-1.43462-1.07338l-14.69708-42.84239c-.35607-1.07338-1.43462-1.07338-1.43462.18062v42.30054c0,.71731-.53669,1.43462-1.254,1.43462h-17.02962c-.71731,0-1.43462-.71731-1.43462-1.43462v-104.31932c0-.71731.71731-1.254,1.43462-1.254h17.21024c.71731,0,1.254.35607,1.43462,1.07338l14.69708,43.37909c.35607,1.07338,1.43462,1.07338,1.43462-.18062v-43.01785c0-.71731.71731-1.254,1.43462-1.254h16.849c.71731,0,1.43462.53669,1.43462,1.254Z"></path><path class="uuid-cf0d0b2d-baf9-4e74-a780-ba700a11afe3" d="m1178.01975,330.82683h-16.49293c-1.07338,0-1.61007-.35607-1.79069-1.61523l-1.254-10.21261c-.18062-1.25916-.71731-1.61523-1.79585-1.61523h-9.67592c-1.07854,0-1.61523.35607-1.79585,1.61523l-1.61007,10.21261c-.18062,1.25916-.71731,1.61523-1.79069,1.61523h-16.31231c-1.07854,0-1.79585-.89793-1.61523-1.97131l15.23893-103.42656c.17546-1.254.71215-1.61007,1.79069-1.61007h20.97223c1.07338,0,1.61007.53669,1.79069,1.61007l15.95108,103.42656c.18062,1.07338-.53669,1.97131-1.61007,1.97131Zm-21.33347-32.26339l-3.94261-27.42801c-.17546-1.42946-1.97131-1.42946-2.15192,0l-3.94261,27.42801c-.17546,1.07338.71731,1.97131,1.79585,1.97131h6.63123c1.07338,0,1.79069-.89793,1.61007-1.97131Z"></path><path class="uuid-cf0d0b2d-baf9-4e74-a780-ba700a11afe3" d="m1239.86307,282.25113c3.40592,4.12323,5.73847,9.31985,5.73847,15.05831v9.85654c0,13.087-11.1157,23.66085-24.2027,23.66085h-32.61946c-1.07854,0-1.79585-.71731-1.79585-1.79069v-103.42656c0-1.07338.71731-1.79069,1.79585-1.79069h33.51739c10.03715,0,18.28362,8.2413,18.28362,18.27846v31.19001c0,2.33254-.36123,4.48447-1.254,6.45577-.36123,1.07338-.18062,1.79069.53669,2.508Zm-21.50893,9.31985h-10.03715c-1.07854,0-1.79585.71731-1.79585,1.79585v17.38569c0,1.07338.71731,1.79069,1.79585,1.79069h10.03715c3.94261,0,7.34854-3.22531,7.34854-7.16792v-6.63123c0-3.94778-3.40592-7.17308-7.34854-7.17308Zm-9.8617-19.53762h7.89039c3.762,0,6.9873-3.04469,6.9873-6.99246v-17.20508c0-3.762-3.22531-6.99246-6.9873-6.99246h-7.89039c-1.07338,0-1.79069.71731-1.79069,1.79585v27.60347c0,1.07338.71731,1.79069,1.79069,1.79069Z"></path><path class="uuid-cf0d0b2d-baf9-4e74-a780-ba700a11afe3" d="m1256.58822,223.81889h16.849c.71731,0,1.43462.53669,1.43462,1.254v104.49994c0,.71731-.53669,1.254-1.254,1.254h-17.02962c-.71731,0-1.43462-.71731-1.43462-1.43462v-104.14386c0-.71215.71731-1.42946,1.43462-1.42946Z"></path><path class="uuid-cf0d0b2d-baf9-4e74-a780-ba700a11afe3" d="m1288.00529,309.3179v-13.80431c0-.71731.71731-1.43462,1.43462-1.43462h17.02962c.71731,0,1.43462.54185,1.43462,1.25916v13.97977c0,2.508,1.79069,6.63123,6.63123,6.63123s6.27516-4.12323,6.27516-6.63123v-18.63969c0-3.76716-3.76716-3.76716-3.76716-3.76716h-9.13923c-23.66085,0-23.12416-23.48023-23.12416-23.48023v-18.103s0-23.30478,26.34947-23.30478,26.34947,23.30478,26.34947,23.30478v13.79915c0,.71731-.53669,1.43462-1.254,1.43462h-17.38569c-.71731,0-1.254-.71731-1.254-1.43462v-13.79915c0-2.51316-1.79585-6.63123-6.63639-6.63123-4.83538,0-6.27,4.11807-6.27,6.63123v18.103c0,3.762,3.762,3.762,3.762,3.762l12.18908.18062c20.611,1.97131,20.07431,23.30478,20.07431,23.30478v18.63969s0,23.29962-26.34947,23.29962-26.34947-23.29962-26.34947-23.29962Z"></path></g><g><path class="uuid-cf0d0b2d-baf9-4e74-a780-ba700a11afe3" d="m1394.3372,223.12738c20.23428,0,20.76581,15.97688,20.76581,31.28806,0,.79472-.53153,1.33141-1.33141,1.33141h-12.38002c-.79988,0-1.33141-.53669-1.33141-1.33141,0-10.2539-.39736-15.57952-6.38869-15.57952-5.72298,0-8.25679,9.45402-8.25679,25.55991,0,15.70853,2.5338,25.16255,8.25679,25.16255,6.12034,0,6.38869-5.32563,6.38869-15.57436,0-.79988.53153-1.33141,1.33141-1.33141h12.38002c.79988,0,1.33141.53153,1.33141,1.33141,0,15.30602-.53153,31.2829-20.76581,31.2829-19.70275,0-23.5628-22.8971-23.5628-40.87109,0-18.37135,3.86005-41.26844,23.5628-41.26844Z"></path><path class="uuid-cf0d0b2d-baf9-4e74-a780-ba700a11afe3" d="m1420.36156,264.26682c0-13.71658,2.66281-41.13943,22.62875-41.13943,19.9711,0,22.63391,27.42285,22.63391,41.13943,0,13.71142-2.66281,41.0001-22.63391,41.0001-19.96594,0-22.62875-27.28868-22.62875-41.0001Zm30.61719,0c.13417-2.13128,0-27.82537-7.98844-27.82537s-8.11745,25.69408-7.98844,27.82537c-.12901,2.12612,0,27.82021,7.98844,27.82021s8.12261-25.69408,7.98844-27.82021Z"></path></g><rect class="uuid-cf0d0b2d-baf9-4e74-a780-ba700a11afe3" x="1374.34546" y="317.64177" width="87.71286" height="13.21086"></rect></g></svg> 