<?xml version="1.0" encoding="UTF-8"?>
<svg id="Layer_2" data-name="Layer 2" xmlns="http://www.w3.org/2000/svg" viewBox="0 0 552.93 908.68">
  <defs>
    <style>
      .cls-1 {
        stroke-width: 0px;
      }
    </style>
  </defs>
  <g id="Layer_10" data-name="Layer 10">
    <g>
      <path class="cls-1" d="M79.21,598.49c-32.62,0-61.12-23.18-67.76-55.12-.96-4.51-1.46-9.27-1.46-14.07v-113.07c0-38.15,31.05-69.19,69.22-69.19s69.19,31.04,69.19,69.19v113.07c0,18.42-7.21,35.78-20.31,48.88-13.1,13.1-30.46,20.31-48.88,20.31ZM79.21,378.81c-20.64,0-37.44,16.78-37.44,37.41v113.07c0,2.57.26,5.1.78,7.52,3.61,17.36,19.02,29.89,36.66,29.89,9.93,0,19.31-3.91,26.41-11,7.1-7.1,11-16.47,11-26.41v-113.07c0-20.63-16.78-37.41-37.41-37.41Z"/>
      <path class="cls-1" d="M294.21,416.89c-8.77,0-15.89-7.11-15.89-15.89v-100.39c0-29.19,13.6-49.17,40.41-59.39,8.21-3.13,17.38.99,20.5,9.19,3.12,8.2-.99,17.38-9.19,20.5-14.35,5.47-19.94,13.79-19.94,29.69v100.39c0,8.78-7.12,15.89-15.89,15.89Z"/>
      <path class="cls-1" d="M399.23,409.52c-8.77,0-15.89-7.11-15.89-15.89v-69.52c0-1.4-.77-2.82-2.11-3.87l-46.53-36.77c-11.02-8.71-22.31-16.66-33.55-23.64-22.84-14.18-22.84-38.15-22.84-57.42V61.09c0-37.68,24.08-61.09,62.84-61.09h77.41c8.77,0,15.89,7.11,15.89,15.89s-7.12,15.89-15.89,15.89h-77.41c-21.48,0-31.06,9.04-31.06,29.31v141.32c0,18.55.67,25.98,7.82,30.42,12.26,7.61,24.53,16.26,36.49,25.71l46.53,36.77c9.01,7.13,14.18,17.62,14.18,28.81v69.52c0,8.78-7.12,15.89-15.89,15.89Z"/>
      <path class="cls-1" d="M461.25,268.61c-7.59,0-14.3-5.45-15.64-13.19-1.49-8.65,4.31-16.87,12.95-18.36,13.59-2.35,31.65-8.94,31.65-38.95V61.09c0-21.61-19.65-29.31-38.04-29.31h-77.41c-8.77,0-15.89-7.11-15.89-15.89s7.12-15.89,15.89-15.89h77.41c41.11,0,69.82,25.12,69.82,61.09v137.01c0,38.28-21.15,63.9-58.02,70.27-.91.16-1.83.24-2.73.24Z"/>
      <path class="cls-1" d="M198.59,598.49c-45.19,0-81.96-36.77-81.96-81.96v-127.14c0-45.19,36.77-81.96,81.96-81.96,24.26,0,47.16,10.74,62.83,29.47,12.33,14.7,19.13,33.35,19.13,52.49v26.23l-10.49,3.79c-8.06,2.91-14.94,8.14-19.87,15.12v.02c-5,7.02-7.63,15.32-7.63,24,0,13.68,6.59,26.51,17.64,34.32l20.36,14.4v9.26c0,21.85-8.55,42.41-24.08,57.91-15.46,15.5-36.03,24.05-57.88,24.05ZM198.59,339.21c-27.67,0-50.18,22.51-50.18,50.18v127.14c0,27.67,22.51,50.18,50.18,50.18,13.35,0,25.92-5.24,35.41-14.75,7.88-7.87,12.83-17.83,14.31-28.58l-6.46-4.57c-19.45-13.75-31.06-36.28-31.06-60.26,0-15.3,4.66-29.95,13.46-42.37h0c6.47-9.15,14.83-16.59,24.53-21.92v-4.87c0-11.69-4.16-23.08-11.71-32.08-9.63-11.51-23.64-18.1-38.47-18.1ZM237.21,425.35h.03-.03Z"/>
      <path class="cls-1" d="M128.66,412.3c-4.83,0-9.61-2.2-12.73-6.36-5.26-7.02-3.84-16.98,3.19-22.24,1.44-1.08,2.91-2.13,4.39-3.15,7.22-4.98,17.12-3.15,22.1,4.07,4.98,7.23,3.15,17.12-4.07,22.1-1.13.78-2.25,1.58-3.36,2.4-2.86,2.14-6.2,3.18-9.52,3.18Z"/>
      <path class="cls-1" d="M536.77,600.69c-8.77,0-15.89-7.11-15.89-15.89,0-6.35-3.09-12.32-8.25-15.98l-220.42-152.26c-7.22-4.99-9.03-14.88-4.04-22.1,4.99-7.22,14.88-9.03,22.1-4.04l220.57,152.36c13.72,9.71,21.82,25.38,21.82,42.02,0,8.78-7.12,15.89-15.89,15.89Z"/>
      <path class="cls-1" d="M233.2,908.68c-71.7,0-127.52-8.47-168.76-48.35C20.42,817.78-.05,743.3,0,625.93c.01-34.11,3.87-63.65,11.78-90.32l30.79,1.29c3.59,17.27,19,29.81,36.65,29.81,9.93,0,19.31-3.91,26.41-11.01,7.1-7.1,11-16.47,11-26.41v-12.77h31.78c0,27.67,22.51,50.18,50.18,50.18,13.35,0,25.92-5.24,35.41-14.75,7.88-7.87,12.83-17.83,14.31-28.58l-6.46-4.57c-19.45-13.74-31.06-36.27-31.06-60.26,0-15.31,4.66-29.97,13.48-42.39,8.69-12.29,20.8-21.5,35.01-26.64,14.9-5.4,31.45-5.84,46.59-1.24,8.4,2.55,13.14,11.43,10.59,19.82-2.55,8.39-11.43,13.13-19.82,10.58-8.61-2.62-18.04-2.36-26.54.72-8.08,2.92-14.95,8.14-19.88,15.12-5,7.04-7.63,15.34-7.63,24.02,0,13.68,6.59,26.51,17.64,34.32l20.36,14.41v9.26c0,21.85-8.55,42.41-24.08,57.9-15.47,15.5-36.03,24.06-57.88,24.06-25.2,0-47.78-11.43-62.83-29.38-2.27,3.2-4.83,6.24-7.66,9.07-13.1,13.1-30.46,20.31-48.88,20.31-16.83,0-32.56-6.17-44.76-16.53-1.79,13.66-2.67,28.25-2.68,43.98-.05,108.17,17.35,175.39,54.74,211.55,41.82,40.44,108.51,41.4,198.13,38.35l5-.17c10.85-.37,17.4-.59,26.55-1.17l1.01-.03c8.77,0,15.9,7.11,15.9,15.89s-6.7,15.48-15.12,15.87c-9.5.6-16.59.84-27.26,1.2l-4.98.17c-18.38.63-35.89,1.08-52.54,1.08Z"/>
      <path class="cls-1" d="M281.26,794.41c-7.91,0-14.76-5.9-15.75-13.95-10.61-86.28,47.46-140.19,83.02-164.64,3.33-2.29,5.26-5.88,5.31-9.86.03-2.27-.57-6.55-4.87-9.67l-93.65-67.93c-7.1-5.15-8.69-15.09-3.53-22.19,5.15-7.1,15.09-8.68,22.19-3.53l93.65,67.93c11.44,8.3,18.16,21.68,17.99,35.79-.18,14.23-7.31,27.56-19.08,35.65-36.19,24.89-77.62,68.44-69.49,134.58,1.07,8.71-5.12,16.64-13.83,17.71-.66.08-1.31.12-1.96.12Z"/>
      <path class="cls-1" d="M514.15,564.15c-8.77,0-15.89-7.11-15.89-15.89v-205.12c0-22.89-10.84-44.69-29.73-59.82l-71.38-57.41c-6.66-5.36-10.33-13.27-10.33-22.26v-89.8c0-8.78,7.12-15.89,15.89-15.89s15.89,7.11,15.89,15.89v88.53l69.82,56.16c26.44,21.17,41.62,52.01,41.62,84.61v205.12c0,8.78-7.12,15.89-15.89,15.89Z"/>
      <path class="cls-1" d="M317.18,906.26c-8.32,0-15.31-6.47-15.84-14.89-.55-8.76,6.1-16.31,14.86-16.86,90.94-5.72,152.97-55.38,184.34-147.62,24.08-70.79,20.4-140.49,20.36-141.19-.5-8.76,6.19-16.27,14.95-16.77,8.72-.52,16.27,6.19,16.78,14.95.18,3.09,4.05,76.66-22,153.25-35.42,104.12-108.88,162.59-212.44,169.1-.34.02-.68.03-1.01.03Z"/>
    </g>
  </g>
</svg>